<svg width="14" height="14" viewBox="0 0 14 14" fill="none" xmlns="http://www.w3.org/2000/svg">
<path d="M7.68539 0.33395C8.17188 0.332083 8.65837 0.336973 9.14473 0.348617L9.27406 0.353284C9.42339 0.358617 9.57073 0.365283 9.74873 0.373283C10.4581 0.406617 10.9421 0.518617 11.3667 0.683284C11.8067 0.852617 12.1774 1.08195 12.5481 1.45262C12.887 1.78569 13.1493 2.18858 13.3167 2.63328C13.4814 3.05795 13.5934 3.54262 13.6267 4.25195C13.6347 4.42928 13.6414 4.57728 13.6467 4.72662L13.6507 4.85595C13.6626 5.34208 13.6677 5.82835 13.6661 6.31462L13.6667 6.81195V7.68528C13.6684 8.17178 13.6633 8.65827 13.6514 9.14462L13.6474 9.27395C13.6421 9.42328 13.6354 9.57062 13.6274 9.74862C13.5941 10.4579 13.4807 10.9419 13.3167 11.3666C13.1498 11.8118 12.8875 12.215 12.5481 12.5479C12.2147 12.8868 11.8116 13.1491 11.3667 13.3166C10.9421 13.4813 10.4581 13.5933 9.74873 13.6266C9.57073 13.6346 9.42339 13.6413 9.27406 13.6466L9.14473 13.6506C8.65838 13.6625 8.17188 13.6676 7.68539 13.6659L7.18806 13.6666H6.31539C5.8289 13.6683 5.34241 13.6631 4.85606 13.6513L4.72673 13.6473C4.56847 13.6415 4.41024 13.6349 4.25206 13.6273C3.54273 13.5939 3.05873 13.4806 2.63339 13.3166C2.18851 13.1495 1.78555 12.8872 1.45273 12.5479C1.11342 12.2148 0.850875 11.8117 0.683393 11.3666C0.518726 10.9419 0.406726 10.4579 0.373392 9.74862C0.365968 9.59043 0.359301 9.4322 0.353392 9.27395L0.350059 9.14462C0.337768 8.65827 0.332212 8.17178 0.333392 7.68528V6.31462C0.331532 5.82835 0.336421 5.34208 0.348059 4.85595L0.352726 4.72662C0.358059 4.57728 0.364726 4.42928 0.372726 4.25195C0.406059 3.54195 0.518059 3.05862 0.682726 2.63328C0.850308 2.18836 1.11337 1.78558 1.45339 1.45328C1.78599 1.11378 2.1887 0.850999 2.63339 0.683284C3.05873 0.518617 3.54206 0.406617 4.25206 0.373283L4.72673 0.353284L4.85606 0.34995C5.34218 0.337665 5.82845 0.332109 6.31473 0.333284L7.68539 0.33395ZM7.00006 3.66728C6.5584 3.66104 6.1199 3.74263 5.71004 3.90733C5.30019 4.07202 4.92716 4.31654 4.61262 4.62665C4.29809 4.93677 4.04833 5.30631 3.87785 5.71379C3.70738 6.12127 3.61959 6.55858 3.61959 7.00028C3.61959 7.44199 3.70738 7.87929 3.87785 8.28678C4.04833 8.69426 4.29809 9.0638 4.61262 9.37391C4.92716 9.68403 5.30019 9.92854 5.71004 10.0932C6.1199 10.2579 6.5584 10.3395 7.00006 10.3333C7.88411 10.3333 8.73196 9.98209 9.35708 9.35697C9.9822 8.73185 10.3334 7.88401 10.3334 6.99995C10.3334 6.1159 9.9822 5.26805 9.35708 4.64293C8.73196 4.01781 7.88411 3.66728 7.00006 3.66728ZM7.00006 5.00062C7.26573 4.99572 7.52971 5.04381 7.77659 5.14209C8.02347 5.24036 8.24828 5.38684 8.43791 5.57298C8.62754 5.75911 8.77818 5.98117 8.88102 6.22618C8.98387 6.47118 9.03686 6.73423 9.0369 6.99994C9.03695 7.26566 8.98404 7.52872 8.88128 7.77376C8.77852 8.0188 8.62795 8.24091 8.43839 8.42711C8.24882 8.61331 8.02405 8.75986 7.77721 8.85822C7.53037 8.95657 7.2664 9.00476 7.00073 8.99995C6.47029 8.99995 5.96159 8.78924 5.58651 8.41416C5.21144 8.03909 5.00073 7.53038 5.00073 6.99995C5.00073 6.46952 5.21144 5.96081 5.58651 5.58574C5.96159 5.21066 6.47029 4.99995 7.00073 4.99995L7.00006 5.00062ZM10.5001 2.66728C10.285 2.67589 10.0816 2.76738 9.93246 2.9226C9.78334 3.07781 9.70005 3.28471 9.70005 3.49995C9.70005 3.71519 9.78334 3.92209 9.93246 4.0773C10.0816 4.23252 10.285 4.32401 10.5001 4.33262C10.7211 4.33262 10.933 4.24482 11.0893 4.08854C11.2456 3.93226 11.3334 3.7203 11.3334 3.49928C11.3334 3.27827 11.2456 3.06631 11.0893 2.91003C10.933 2.75375 10.7211 2.66595 10.5001 2.66595V2.66728Z" fill="white"/>
</svg>
